<?xml version="1.0" encoding="UTF-8" standalone="no"?>
<!-- Created with Inkscape (http://www.inkscape.org/) -->

<svg
   version="1.1"
   id="svg2"
   width="1600"
   height="400"
   viewBox="0 0 1600 400"
   sodipodi:docname="logo.svg"
   inkscape:version="1.2.1 (9c6d41e410, 2022-07-14)"
   xmlns:inkscape="http://www.inkscape.org/namespaces/inkscape"
   xmlns:sodipodi="http://sodipodi.sourceforge.net/DTD/sodipodi-0.dtd"
   xmlns="http://www.w3.org/2000/svg"
   xmlns:svg="http://www.w3.org/2000/svg">
  <defs
     id="defs6" />
  <sodipodi:namedview
     id="namedview4"
     pagecolor="#ffffff"
     bordercolor="#000000"
     borderopacity="0.25"
     inkscape:showpageshadow="2"
     inkscape:pageopacity="0.0"
     inkscape:pagecheckerboard="0"
     inkscape:deskcolor="#d1d1d1"
     showgrid="false"
     inkscape:zoom="1.1662912"
     inkscape:cx="774.67788"
     inkscape:cy="433.85391"
     inkscape:window-width="2560"
     inkscape:window-height="1263"
     inkscape:window-x="0"
     inkscape:window-y="0"
     inkscape:window-maximized="1"
     inkscape:current-layer="g12">
    <inkscape:page
       x="0"
       y="0"
       id="page8"
       width="1600"
       height="400"
       inkscape:export-filename="stura-favicon.png"
       inkscape:export-xdpi="96"
       inkscape:export-ydpi="96" />
  </sodipodi:namedview>
  <g
     id="g10"
     inkscape:groupmode="layer"
     inkscape:label="Page 1"
     transform="matrix(1.3333333,0,0,-1.3333333,0,348)">
    <g
       id="g12"
       transform="scale(0.1)">
      <path
         d="m 8154.6349,7.6540715 -23.9459,12.8309005 -23.9577,12.8309 -23.1021,11.9813 -23.9458,12.8309 -22.2465,12.8357 -23.102,12.8309 -22.2466,11.9765 -22.2464,12.830898 -21.379,12.8357 -21.3908,12.8298 -21.3908,12.8356 -21.3908,12.8357 -21.3909,12.831 -20.5233,12.8357 -20.5351,13.6841 -20.5353,12.8358 -20.5352,13.6853 -19.6677,13.6889 -19.6795,12.8358 -20.5352,13.6901 -19.6795,14.5386 -19.6677,13.6889 -19.6915,13.6901 -19.6677,14.5435 -18.8239,14.5445 -19.6676,14.5434 -19.6915,15.4026 -18.812,14.5386 -19.6796,15.4026 -19.6796,15.3978 -18.8239,15.4026 -19.6677,16.2523 31.6585,5.9882 30.7908,6.8475 31.6466,8.5504 30.8028,8.5598 30.8028,10.2641 29.9353,11.9765 29.9472,11.98125 29.9471,12.8309 29.0796,14.5434 29.1034,15.40265 29.0797,15.38951 28.2359,17.12451 27.3684,17.10076 26.5246,17.96832 26.5245,18.82391 26.5247,19.67958 24.8015,20.52331 24.8134,20.53519 23.9577,21.39083 23.1021,21.39083 22.2345,22.24646 22.2465,23.09021 20.5352,23.10209 20.5352,23.95772 18.812,23.95773 18.8239,23.94584 17.1128,24.81337 16.2569,24.81335 15.4015,24.81336 14.5457,25.65712 13.6901,24.81333 11.9671,25.669 v 1.7113 l -1.7114,1.6994 -0.8556,0.8675 2.567,1.7113 11.9788,-99.24161 7.7007,-88.13021 4.2782,-82.98452 1.7112,-81.27326 -0.8557,-85.55145 -3.4225,-93.25093 -5.1338,-106.08075 -6.845,-123.2016 196.7719,67.5891 2.5668,45.3438 0.8557,60.7415 0.8556,75.28635 -1.7113,87.26264 -2.5668,94.96344 -4.2782,100.09718 -5.9895,103.51972 -8.5563,104.3754 -11.1113,101.8084 -12.8464,96.6628 -16.2452,88.9739 -18.8239,78.7064 -21.3909,65.0281 -25.657,49.6148 -28.2359,30.8028 -32.5141,9.412 -44.4929,-3.4225 -43.6254,-5.9895 -43.6373,-7.7007 -43.6254,-9.4119 -43.6373,-11.1233 -42.7697,-12.8226 -42.7817,-15.4014 -41.9142,-16.257 -41.926,-17.9683 -41.0704,-19.6795 -40.2028,-21.379 -39.3592,-22.2464 -39.3471,-23.9578 -37.648,-24.8133 -37.6359,-26.5246 -36.7922,-27.3684 -35.081,-28.2359 -34.2135,-29.0915 -34.2252,-29.9353 -31.6466,-30.8028 -31.6584,-31.6584 -29.9472,-32.5022 -28.2239,-33.3697 -27.3804,-33.3578 -26.5246,-33.36971 -23.9577,-35.08095 -23.0902,-34.21344 -21.3908,-35.08096 -19.6796,-35.08096 -18.824,-35.06907 -16.2451,-35.93659 -14.5576,-35.06907 -24.8015,30.7909 -25.669,31.65844 -24.8134,31.65842 -25.657,31.64654 -25.669,32.51405 -25.6691,32.51406 -25.657,32.50217 -25.669,32.51407 -25.6691,33.3697 -26.5246,33.3578 -26.5127,34.2253 -26.5246,33.3578 -26.5247,34.2254 -27.3683,35.0809 -27.3803,35.0691 -28.2358,35.0809 29.947,22.2465 31.6585,23.1021 32.5022,23.0902 34.2253,23.9577 34.2134,25.669 35.9366,25.6571 35.0691,26.5246 35.9366,26.5247 35.0809,28.2359 35.9248,28.224 35.081,29.0915 33.3697,30.7909 33.3696,29.9472 32.5022,31.6584 30.8027,31.6465 29.0916,33.3697 27.3684,33.3697 25.6689,34.2134 23.1021,34.2254 21.379,35.9366 17.9682,35.9247 15.4015,36.7922 12.8344,37.6479 9.412,38.4916 5.1338,38.5034 2.567,39.3473 -1.7113,40.2147 -5.9895,41.0704 -10.2675,41.0585 -15.4014,41.9142 -18.824,42.7816 -24.8014,43.6373 -12.8346,17.1008 -17.1126,15.4014 -20.5353,14.5457 -23.0901,12.8345 -27.3803,11.9789 -29.9471,10.2676 -33.3697,9.412 -35.0691,7.7007 -37.6479,6.8332 -40.2029,5.1337 -42.7815,4.2901 -43.6373,3.4225 -46.1924,1.7113 -47.0479,0.8556 -47.9155,-0.8556 -49.6267,-0.8675 -50.4704,-3.4107 -50.4823,-3.4225 -52.1819,-5.1338 -51.326,-5.9894 -51.338,-6.8451 -52.1818,-7.7007 -51.338,-8.5563 -50.4704,-10.2676 -50.4824,-11.1233 -48.7592,-11.1232 -47.9155,-12.8345 -47.0479,-13.6901 -44.4929,-14.5339 -43.6254,-15.4014 -41.926,-16.257 -39.3473,-17.1127 -25.6689,-290.8796 26.5127,21.3909 24.8134,19.6795 23.9577,17.9683 23.1021,15.4014 22.2465,14.5339 21.3908,12.8345 20.5233,11.9788 20.5352,11.1233 19.6795,9.4119 19.6796,9.412 20.5233,7.7007 19.6796,7.7007 19.6796,7.6888 21.3907,6.857 20.5353,6.8331 22.2346,6.8451 -10.2676,-736.605 -148.0008,-27.3803 6.845,-141.1557 6.8452,-127.4774 5.1338,-114.6311 4.2662,-102.66408 1.7231,-92.39648 v -82.1289 l -3.4225,-71.87318 -6.8451,-64.16064 -10.2675,-56.45984 -13.6901,-48.77106 -18.8241,-42.77705 -23.102,-37.6419 -29.0797,-32.5092 -34.2253,-29.0868 -41.0584,-25.6667 -47.0599,-23.9577 -47.9154,-15.3978 -40.2029,0.858 -32.5141,16.2522 -25.669,29.088 -19.6677,41.0681 -14.5457,53.0409 -9.412,63.30975 -4.2782,72.71456 -1.7112,81.28514 1.7112,87.2627 3.4227,94.09587 5.9893,98.38592 6.8451,102.66409 6.845,105.231 6.8451,106.9422 5.9895,106.9423 -189.0712,-37.6479 -0.8556,-21.3789 -6.845,-59.0387 -10.2677,-88.9739 -11.1232,-111.2086 -11.9788,-125.76617 -8.5565,-134.32251 -4.2781,-132.59936 2.5669,-125.76504 -28.2358,-29.9459 -27.3685,-23.09855 -24.8132,-17.1115 -23.9578,-11.1221 -23.1021,-5.9882 -20.5233,-1.7136 -19.6796,3.426 -17.9682,7.7019 -17.1128,11.1174 -14.5338,14.548 -14.5577,17.1068 -11.9669,20.53165 -11.1233,22.2452 -9.4119,23.9602 -8.5563,25.66896 -6.8451,26.51277 -19.6796,101.80844 -12.8345,103.51972 -5.1338,106.94226 0.8676,111.22043 8.5444,116.3423 14.5457,121.488 21.3908,129.1769 28.236,137.745 2.5669,0.8556 4.2662,1.7113 6.0014,0.8556 8.5563,1.7113 9.4,1.7113 11.1233,1.7112 12.8345,1.7113 13.6901,1.7113 14.5458,1.7112 15.4014,1.7113 16.257,1.7113 17.1008,0.8556 17.1127,0.8556 17.9683,0.8557 17.1126,0.8556 h 17.9683 l 30.7909,186.5042 -179.6591,-38.5034 11.1231,47.9154 11.9789,45.3367 12.8345,44.4929 12.8345,42.7698 13.6783,42.7816 14.5576,42.7698 15.3895,43.6373 15.4014,45.3485 -232.7084,-103.5197 -81.2732,-304.5697 -188.2156,-64.1606 -17.9564,-146.3014 13.6783,5.1338 12.8344,4.2782 11.9789,4.2781 11.1232,3.4226 11.1233,4.2781 10.2676,2.5669 10.2675,3.4226 10.2558,3.4225 9.412,2.555 9.4119,2.5669 9.412,2.5669 9.412,2.5669 9.4119,3.4225 10.2675,2.567 9.412,2.5668 10.2676,3.4345 -3.4225,-10.2676 -5.9894,-27.3803 -8.5564,-42.7816 -9.4119,-57.3156 -10.2676,-71.8613 -9.412,-83.8401 -8.5563,-96.6747 -6.8451,-107.7979 -11.9788,28.2359 -15.3895,27.3803 -18.824,27.3684 -20.5352,26.5246 -23.1021,26.5127 -26.5127,25.669 -27.3803,25.6571 -29.9471,25.669 -30.7909,24.8134 -33.3697,24.8133 -34.2253,23.9578 -35.0691,23.9577 -35.9366,23.9458 -36.7804,23.1021 -37.6478,23.1021 -37.6419,23.1021 -37.6432,22.2346 -37.643,22.2464 -37.6432,22.2465 -36.7886,22.2465 -35.9294,21.3789 -35.081,21.3908 -34.2206,21.3909 -33.3637,21.3908 -30.7956,20.5233 -29.946,20.5352 -28.2336,20.5352 -25.6654,20.5352 -23.0997,20.5352 -21.3908,19.6677 -17.9647,20.5352 -15.3979,19.6795 -13.6901,22.2465 -10.2628,21.3789 -6.8427,21.3909 -3.4261,20.5351 v 19.6796 l 2.5669,19.6796 5.1338,18.812 6.8427,17.1127 10.2687,17.1126 11.9766,15.4014 13.6901,15.4014 15.3977,13.6902 17.1104,11.9669 17.9647,11.1233 19.6784,10.2676 20.5316,8.5563 21.3909,6.8451 21.386,5.9894 23.0997,3.4225 22.2441,2.5669 23.0997,0.8557 22.2453,-1.7113 22.2405,-2.5669 21.3908,-5.1338 21.3861,-6.8451 20.5364,-9.4119 18.8191,-11.1233 17.9647,-13.6901 16.2571,-15.3895 15.3979,-17.9683 12.8356,-20.5352 11.1173,-23.1021 234.4078,102.6641 -23.9458,41.0704 -27.3803,37.636 -29.0915,34.2253 -32.5021,29.9471 -33.3697,26.5247 -35.9319,23.0902 -36.7839,19.6795 -38.5011,16.2571 -39.3568,12.8226 -40.2052,9.4238 -41.068,5.9895 -41.0644,3.4106 h -41.0645 l -41.0633,-3.4106 -41.0644,-5.9895 -39.3556,-8.5563 -39.3556,-11.9789 -38.4975,-14.5457 -36.7887,-16.2571 -35.0761,-19.6795 -34.2206,-22.2465 -30.8004,-24.8015 -29.088,-27.3802 -26.5199,-29.0916 -23.9541,-31.6465 -21.3909,-33.3697 -17.1102,-35.9366 -14.5434,-37.6359 -10.2688,-40.2148 -6.8379,-41.926 -1.7125,-43.6254 1.7125,-45.3367 6.8379,-36.7922 11.9812,-36.7922 17.9647,-35.0691 22.2453,-34.2253 26.5199,-34.2254 30.7957,-32.5021 34.2265,-32.5141 37.6431,-31.6465 41.0645,-31.6585 42.7721,-31.6584 45.3485,-30.8028 47.0527,-29.9352 47.906,-30.8028 49.6196,-29.9353 48.7698,-30.8028 50.4741,-29.9472 48.7651,-30.8027 48.7652,-30.791 47.9071,-30.8027 46.203,-31.6466 44.4822,-31.6584 42.7817,-32.5141 39.3591,-33.3578 36.7803,-33.36967 33.3697,-35.06908 29.0797,-35.08096 24.8133,-35.93659 21.3909,-37.63596 15.4014,-37.64786 10.2675,-40.21476 4.2664,-40.20287 -1.7113,-41.92602 -6.845,-44.48107 -11.1114,-40.21475 -14.5458,-37.63593 -17.1127,-34.22656 -20.5351,-31.6548 -23.9577,-28.23245 -26.5128,-25.6666 -29.0916,-22.2405 -31.6464,-19.682 -33.3697,-16.2522 -35.9367,-14.5445 -37.6396,-11.1221 -40.21,-9.4096 -41.0692,-6.8474 -41.9177,-3.4166 -44.4906,-2.5669 -44.4845,0.8545 -46.1982,2.5668 -46.1982,4.2758 -47.0527,6.8427 -47.0575,8.5599 -47.906,11.1173 -47.9119,11.9765 -47.0514,14.5446 -47.0574,16.2558 -47.0528,17.1115 -46.1982,18.8239 -45.3438,20.5316 -43.6313,22.2453 -42.7769,23.09385 -41.9177,24.81211 -40.21,25.6607 -258.3708,-248.95486 97.5306,-43.6313 94.9635,-38.4975 91.5374,-34.2206 88.1219,-29.0879 84.6993,-25.6667 82.1289,-21.386 78.7111,-17.9696 76.1394,-13.6854 72.7242,-10.267498 69.292,-6.8427 66.7346,-3.4214 64.1641,-0.8545 60.7415,2.5634 57.3204,5.9883 54.7533,7.7007 52.1842,11.123198 49.6268,12.8297 46.1921,14.5494 43.6373,17.1055 41.0586,19.6784 37.6478,20.5316 35.9247,22.2453 32.5141,23.953 29.9472,24.8121 27.3684,26.5199 24.8133,27.3791 22.2465,28.2335 18.824,28.2288 17.1007,29.0926 14.5457,29.9365 11.979,29.0879 9.4119,29.946 12.8345,-41.9188 14.5457,-38.5012 16.257,-36.7838 18.8121,-32.5141 20.5352,-29.0868 23.1021,-25.6667 24.8132,-20.5315 27.3685,-15.3979 29.9472,-10.2688 32.514,-4.2746 35.0809,2.567 37.636,8.5503 40.2029,15.4026 43.6372,23.9529 46.2043,31.655 48.7593,39.3555 16.2569,-42.7769 17.9683,-38.5011 19.6676,-35.0715 20.5353,-30.8004 21.3908,-26.5199 22.2465,-23.9541 23.9577,-19.6819 23.9458,-16.2523 24.8134,-13.6901 26.5246,-10.262898 25.669,-6.8474 27.3683,-5.1338 26.5247,-1.7136 27.3803,0.8592 28.2239,2.5668 27.3803,5.9883 28.2359,6.847398 27.3803,9.4049 28.224,11.1267 27.3802,13.6854 26.5128,14.5434 26.5365,15.3978 26.5128,17.9695 25.6689,17.9648 24.8015,19.6783 23.9577,20.5317 23.9577,21.3908 22.2465,21.386 21.3908,23.0997 19.6677,22.2406 18.8239,23.0985 17.9683,23.1045 16.2571,-206.1838 267.7775,17.1102 -15.4015,132.6065 -11.9788,117.2087 -9.4119,107.79442 -7.6889,100.9563 -6.845,99.24159 -6.0014,100.95282 -5.9775,108.64164 -6.845,118.06546 39.3472,-56.4599 40.2147,-54.7605 40.2029,-54.74863 40.2147,-53.893 41.0705,-53.04925 41.0584,-52.18174 41.0705,-51.33798 41.9141,-50.47051 41.926,-48.77106 41.9142,-48.76395 41.926,-47.90716 41.926,-46.19825 41.9141,-45.3438 41.0704,-44.4846 41.926,-43.6314 41.0586,-41.9236 41.9141,-41.0632 40.2148,-40.21 41.0703,-38.4976 40.203,-37.6467 40.2147,-36.788598 39.3473,-35.0762 38.5035,-34.2218 38.4916,-32.5081 37.6478,-31.6548 37.6359,-29.946 35.9367,-29.088002 35.9365,-27.3743 35.0691,-25.6666 34.2254,-24.8122 33.3697,-23.0985 32.5021,-21.3861 z m 5.1337,1302.1012285 -43.6254,-1.7112 -42.7816,-5.1338 -41.9141,-7.6888 -41.0704,-11.9789 -41.0585,-14.5458 -39.3592,-17.1126 -38.4916,-19.6796 -38.5035,-21.3789 -35.9365,-23.9578 -35.9248,-24.8133 -34.2252,-27.3803 -32.5141,-28.2359 -31.6465,-28.224 -29.9472,-29.9352 -29.0796,-30.8028 -26.5365,-29.94721 -25.6572,-30.80279 -23.102,-30.79091 -21.3909,-29.94716 -19.6677,-29.09152 -17.9683,-28.224 -16.2569,-27.38027 -13.6903,-25.66898 -11.1231,-23.95774 -9.4002,-22.23457 -6.845,-20.53519 -4.2781,-17.11267 -1.7232,-15.40139 0.8675,-12.83449 3.4225,-8.54445 5.9895,-5.98944 8.5444,-2.56694 h 41.0704 l 40.2029,4.26633 40.2147,6.85694 39.3473,11.11135 39.3591,13.69013 38.5035,17.11267 37.636,18.82392 37.6478,21.39083 35.9366,23.95772 35.069,24.80148 34.2254,27.38026 33.3578,28.23589 31.6585,29.07965 30.8027,29.94715 29.0796,30.79091 27.3803,31.65842 25.669,30.80277 24.8134,30.8028 22.2345,30.7909 20.5352,29.0916 18.824,29.0796 17.1126,28.2359 14.5458,25.669 11.9789,24.8133 10.2557,22.2346 7.7006,20.5352 5.1338,17.9683 2.567,15.4014 -0.8557,11.9789 -2.5669,9.4 -5.9776,5.9895 z m -900.0071,752.0183 -5.9894,22.2346 -7.7007,19.6796 -10.2676,18.8239 -12.8227,16.257 -14.5457,15.4014 -17.1127,13.6902 -17.9682,11.9669 -19.6796,11.1233 -21.3909,9.4119 -23.0902,7.7007 -23.102,6.8451 -24.8134,5.9894 -25.6571,5.1338 -25.669,4.2782 -26.5247,2.5669 -27.3802,2.5669 -26.5128,0.8437 -27.3802,0.8676 -26.5246,0.8556 -27.3684,-0.8556 -25.669,-0.8676 -25.669,-0.8437 -24.8134,-1.7113 -23.9458,-1.7112 -23.1021,-1.7113 -21.3908,-2.5669 -20.5352,-1.7113 -18.8239,-1.7112 -17.1008,-2.5669 -15.4014,-1.7113 -12.8345,-1.7113 -11.1233,-0.8556 3.4226,-177.9479 1.7112,-172.826 1.7113,-171.9466 3.4225,-177.1042 18.824,5.9894 20.5352,7.7007 22.2346,9.412 23.1021,10.2676 23.9577,11.1232 24.8015,12.8345 25.6689,14.5339 26.5247,14.5458 27.3803,16.257 27.3683,16.257 27.3803,17.9683 28.2359,17.9683 27.3683,19.6796 27.3803,18.812 27.3803,20.5352 26.5127,19.6796 25.669,20.5352 24.8134,21.3789 24.8133,20.5352 23.1021,21.3908 21.3789,20.5352 20.5353,21.3909 18.8239,20.5233 17.1126,20.5352 15.4014,19.6795 13.6901,19.6796 11.1114,19.6795 9.412,17.9565 6.8569,17.9683 4.2663,17.1126 1.7112,16.257 -1.7112,15.4014"
         style="fill:#222222;fill-opacity:1;fill-rule:evenodd;stroke:none;stroke-width:1.18838"
         id="path14" />
    </g>
  </g>
</svg>
